<?xml version="1.0" encoding="UTF-8" standalone="no"?>
<!-- Created with Inkscape (http://www.inkscape.org/) -->
<svg
   xmlns:dc="http://purl.org/dc/elements/1.1/"
   xmlns:cc="http://creativecommons.org/ns#"
   xmlns:rdf="http://www.w3.org/1999/02/22-rdf-syntax-ns#"
   xmlns:svg="http://www.w3.org/2000/svg"
   xmlns="http://www.w3.org/2000/svg"
   xmlns:sodipodi="http://sodipodi.sourceforge.net/DTD/sodipodi-0.dtd"
   xmlns:inkscape="http://www.inkscape.org/namespaces/inkscape"
   width="16"
   height="16"
   id="svg4099"
   sodipodi:version="0.32"
   inkscape:version="0.46"
   version="1.0"
   sodipodi:docname="type=Mega-Event Cache.svg"
   inkscape:output_extension="org.inkscape.output.svg.inkscape"
   style="display:inline">
  <defs
     id="defs4101">
    <inkscape:perspective
       sodipodi:type="inkscape:persp3d"
       inkscape:vp_x="0 : 526.18109 : 1"
       inkscape:vp_y="0 : 1000 : 0"
       inkscape:vp_z="744.09448 : 526.18109 : 1"
       inkscape:persp3d-origin="372.04724 : 350.78739 : 1"
       id="perspective4107" />
  </defs>
  <sodipodi:namedview
     id="base"
     pagecolor="#ffffff"
     bordercolor="#666666"
     borderopacity="1.0"
     gridtolerance="10000"
     guidetolerance="10"
     objecttolerance="10"
     inkscape:pageopacity="0.0"
     inkscape:pageshadow="2"
     inkscape:zoom="20.108349"
     inkscape:cx="-10.984652"
     inkscape:cy="8"
     inkscape:document-units="px"
     inkscape:current-layer="layer10"
     showgrid="true"
     inkscape:window-width="1918"
     inkscape:window-height="1114"
     inkscape:window-x="1"
     inkscape:window-y="27"
     showguides="true"
     inkscape:guide-bbox="true">
    <inkscape:grid
       type="xygrid"
       id="grid4109"
       units="px"
       visible="true"
       enabled="true"
       spacingx="0.5px"
       spacingy="0.5px" />
    <sodipodi:guide
       orientation="1,0"
       position="8,10.074725"
       id="guide5376" />
    <sodipodi:guide
       orientation="0,1"
       position="6.0659341,8"
       id="guide5378" />
  </sodipodi:namedview>
  <metadata
     id="metadata4104">
    <rdf:RDF>
      <cc:Work
         rdf:about="">
        <dc:format>image/svg+xml</dc:format>
        <dc:type
           rdf:resource="http://purl.org/dc/dcmitype/StillImage" />
        <cc:license
           rdf:resource="http://creativecommons.org/licenses/by-sa/3.0/" />
        <dc:creator>
          <cc:Agent>
            <dc:title>Heiko Reese &lt;mail@heiko-reese.de&gt;</dc:title>
          </cc:Agent>
        </dc:creator>
        <dc:title>Mega-Event Cache</dc:title>
        <dc:subject>
          <rdf:Bag>
            <rdf:li>geocaching icon megaevent</rdf:li>
          </rdf:Bag>
        </dc:subject>
      </cc:Work>
      <cc:License
         rdf:about="http://creativecommons.org/licenses/by-sa/3.0/">
        <cc:permits
           rdf:resource="http://creativecommons.org/ns#Reproduction" />
        <cc:permits
           rdf:resource="http://creativecommons.org/ns#Distribution" />
        <cc:requires
           rdf:resource="http://creativecommons.org/ns#Notice" />
        <cc:requires
           rdf:resource="http://creativecommons.org/ns#Attribution" />
        <cc:permits
           rdf:resource="http://creativecommons.org/ns#DerivativeWorks" />
        <cc:requires
           rdf:resource="http://creativecommons.org/ns#ShareAlike" />
      </cc:License>
    </rdf:RDF>
  </metadata>
  <g
     inkscape:groupmode="layer"
     id="layer10"
     inkscape:label="Mega-Event Cache"
     style="display:inline"
     sodipodi:insensitive="true">
    <path
       id="path5114"
       d="M 8,2 C 3.86,2 0.5,4.24 0.5,7 C 0.5,9.76 3.86,12 8,12 C 8.6979128,12 9.3587802,11.931575 10,11.8125 L 10,14 L 11.46875,11.4375 C 13.857201,10.60088 15.5,8.9224528 15.5,7 C 15.5,4.24 12.14,2 8,2 z"
       style="opacity:1;fill:#ffffff;fill-opacity:1;fill-rule:nonzero;stroke:#000000;stroke-width:0.5;stroke-linecap:round;stroke-linejoin:round;stroke-miterlimit:4;stroke-dasharray:none;stroke-dashoffset:0;stroke-opacity:1;display:inline" />
    <path
       style="font-size:5px;font-style:normal;font-variant:normal;font-weight:bold;font-stretch:semi-condensed;text-align:center;line-height:125%;writing-mode:lr-tb;text-anchor:middle;fill:#b22426;fill-opacity:1;stroke:none;stroke-width:1pt;stroke-linecap:butt;stroke-linejoin:miter;stroke-opacity:1;font-family:DejaVu Sans;-inkscape-font-specification:DejaVu Sans Bold Semi-Condensed"
       d="M 3.7344493,6.1443281 C 3.8317353,5.9784613 3.9473652,5.8524646 4.0813392,5.7663376 C 4.2153075,5.6786211 4.3628353,5.6347613 4.523923,5.6347586 C 4.8014313,5.6347613 5.0127549,5.7296577 5.1578944,5.9194477 C 5.3030258,6.1092426 5.3755935,6.3851595 5.3755978,6.7471989 L 5.3755978,8.3787781 L 4.600478,8.3787781 L 4.600478,6.9816489 C 4.6020694,6.9609165 4.602867,6.9393854 4.6028703,6.9170554 C 4.6044618,6.8947284 4.6052592,6.8628305 4.6052627,6.8213617 C 4.6052592,6.6315707 4.579741,6.4944098 4.5287077,6.4098784 C 4.4792626,6.323756 4.397923,6.2806939 4.2846886,6.2806917 C 4.1395499,6.2806939 4.0271099,6.3476795 3.9473679,6.4816487 C 3.8676203,6.6156218 3.8261531,6.8094015 3.8229661,7.0629886 L 3.8229661,8.3787781 L 3.0478464,8.3787781 L 3.0478464,6.9816489 C 3.0478443,6.6849997 3.0247184,6.4944098 2.9784683,6.4098784 C 2.9322144,6.323756 2.8500774,6.2806939 2.7320569,6.2806917 C 2.5853248,6.2806939 2.4712899,6.3484769 2.3899515,6.4840411 C 2.3102054,6.6180141 2.2703331,6.810199 2.2703342,7.0605962 L 2.2703342,8.3787781 L 1.4952145,8.3787781 L 1.4952145,5.699352 L 2.2703342,5.699352 L 2.2703342,6.0916965 C 2.3644319,5.9401838 2.4728847,5.8261488 2.5956931,5.7495912 C 2.7184986,5.6730389 2.8540646,5.6347613 3.0023918,5.6347586 C 3.168259,5.6347613 3.3149892,5.6794185 3.4425832,5.76873 C 3.5717674,5.8580468 3.669056,5.983246 3.7344493,6.1443281 M 8.5,7.031888 L 8.5,7.2759072 L 6.6985644,7.2759072 C 6.7161072,7.4768651 6.7807005,7.6275826 6.8923443,7.7280604 C 7.0055807,7.8285394 7.1626779,7.8787786 7.3636363,7.8787781 C 7.5263139,7.8787786 7.6921829,7.8524629 7.861244,7.7998306 C 8.0318956,7.7456049 8.2065365,7.6642653 8.3851675,7.5558115 L 8.3851675,8.2160987 C 8.2033468,8.2926538 8.0207313,8.3500701 7.8373206,8.3883475 C 7.6555004,8.4282199 7.4736824,8.4481561 7.291866,8.4481562 C 6.8548632,8.4481561 6.5151505,8.3253491 6.272727,8.079735 C 6.0318975,7.8325266 5.9114828,7.4864344 5.9114831,7.0414574 C 5.9114828,6.6044576 6.0303025,6.2607577 6.2679423,6.0103568 C 6.5055811,5.7599607 6.8325345,5.6347613 7.2488037,5.6347586 C 7.6283871,5.6347613 7.9314172,5.7615555 8.1578947,6.0151415 C 8.3859622,6.2687322 8.4999973,6.6076474 8.5,7.031888 M 7.7081339,6.7471989 C 7.7081319,6.5845213 7.6650698,6.45374 7.5789473,6.3548544 C 7.494416,6.2543781 7.3827733,6.2041388 7.244019,6.2041367 C 7.0956923,6.2041388 6.9744803,6.2511882 6.8803826,6.3452851 C 6.7878776,6.437791 6.729664,6.5717621 6.7057414,6.7471989 L 7.7081339,6.7471989 M 10.729665,7.9242326 C 10.622805,8.0805328 10.50558,8.1953651 10.377991,8.2687303 C 10.250397,8.3420955 10.102072,8.3787781 9.9330145,8.3787781 C 9.6395528,8.3787781 9.3963313,8.250389 9.2033494,7.9936106 C 9.0119616,7.735238 8.9162679,7.4066897 8.916268,7.0079646 C 8.9162679,6.6076474 9.0119616,6.2798964 9.2033494,6.0247109 C 9.3963313,5.767935 9.6395528,5.6395461 9.9330145,5.6395434 C 10.102072,5.6395461 10.250397,5.6762287 10.377991,5.7495912 C 10.50558,5.8229589 10.622805,5.9385888 10.729665,6.0964812 L 10.729665,5.699352 L 11.504785,5.699352 L 11.504785,8.1084432 C 11.504782,8.5390651 11.381975,8.8676135 11.136363,9.0940892 C 10.892343,9.3221585 10.537478,9.4361934 10.07177,9.4361946 C 9.921849,9.4361934 9.7759162,9.4234343 9.6339714,9.3979171 C 9.4936197,9.3723976 9.3524715,9.3333227 9.2105265,9.2806921 L 9.2105265,8.6132279 C 9.346092,8.699352 9.4784683,8.7631478 9.6076556,8.8046155 C 9.7368412,8.8476773 9.8668251,8.8692083 9.9976078,8.8692089 C 10.249601,8.8692083 10.434608,8.8078049 10.552632,8.6849982 C 10.670653,8.562191 10.729664,8.3700062 10.729665,8.1084432 L 10.729665,7.9242326 M 10.220096,6.2567683 C 10.060605,6.2567704 9.9362031,6.3221611 9.8468901,6.4529407 C 9.7591698,6.5837238 9.7153102,6.7687316 9.7153112,7.0079646 C 9.7153102,7.2535798 9.7583723,7.4401824 9.8444978,7.5677733 C 9.9306209,7.6937707 10.05582,7.7567691 10.220096,7.7567685 C 10.381179,7.7567691 10.506378,7.6913784 10.595693,7.5605962 C 10.685006,7.4298157 10.729664,7.2456053 10.729665,7.0079646 C 10.729664,6.7687316 10.685006,6.5837238 10.595693,6.4529407 C 10.506378,6.3221611 10.381179,6.2567704 10.220096,6.2567683 M 13.327751,7.1730365 C 13.166665,7.1730376 13.045453,7.2033406 12.964115,7.2639455 C 12.882774,7.3245525 12.842105,7.4138667 12.842106,7.5318881 C 12.842105,7.6403418 12.8748,7.7256687 12.940192,7.787869 C 13.00558,7.8484757 13.096489,7.8787786 13.21292,7.8787781 C 13.358053,7.8787786 13.480063,7.8213623 13.578947,7.7065292 C 13.67783,7.5901025 13.727271,7.4449671 13.727273,7.2711224 L 13.727273,7.1730365 L 13.327751,7.1730365 M 14.504786,6.8500698 L 14.504786,8.3787781 L 13.727273,8.3787781 L 13.727273,7.9816489 C 13.623602,8.1443286 13.507175,8.2631482 13.377992,8.3381083 C 13.248803,8.4114735 13.091706,8.4481561 12.9067,8.4481562 C 12.6563,8.4481561 12.452951,8.3676139 12.296651,8.2065293 C 12.141945,8.0438502 12.064594,7.833324 12.064594,7.5749503 C 12.064594,7.2607567 12.161882,7.0302945 12.35646,6.8835627 C 12.551036,6.7368338 12.856458,6.6634687 13.272727,6.6634669 L 13.727273,6.6634669 L 13.727273,6.5964812 C 13.727271,6.460917 13.678627,6.3620335 13.581339,6.2998306 C 13.485646,6.2360368 13.336522,6.2041388 13.133971,6.2041367 C 12.9681,6.2041388 12.814194,6.2224803 12.672249,6.2591607 C 12.530303,6.2958454 12.397927,6.3508693 12.275121,6.4242325 L 12.275121,5.7711223 C 12.440988,5.7264679 12.606858,5.6929751 12.772727,5.6706438 C 12.940191,5.6467231 13.106857,5.6347613 13.272727,5.6347586 C 13.708132,5.6347613 14.022327,5.7304551 14.215311,5.9218401 C 14.408291,6.111635 14.504784,6.4210446 14.504786,6.8500698"
       id="text5122" />
  </g>
</svg>
