<?xml version="1.0" encoding="UTF-8" standalone="no"?>
<!-- Created with Inkscape (http://www.inkscape.org/) -->
<svg
   xmlns:dc="http://purl.org/dc/elements/1.1/"
   xmlns:cc="http://creativecommons.org/ns#"
   xmlns:rdf="http://www.w3.org/1999/02/22-rdf-syntax-ns#"
   xmlns:svg="http://www.w3.org/2000/svg"
   xmlns="http://www.w3.org/2000/svg"
   xmlns:sodipodi="http://sodipodi.sourceforge.net/DTD/sodipodi-0.dtd"
   xmlns:inkscape="http://www.inkscape.org/namespaces/inkscape"
   width="16"
   height="16"
   id="svg4099"
   sodipodi:version="0.32"
   inkscape:version="0.46"
   version="1.0"
   sodipodi:docname="type=Unknown Cache,solved.svg"
   inkscape:output_extension="org.inkscape.output.svg.inkscape"
   style="display:inline">
  <defs
     id="defs4101">
    <inkscape:perspective
       sodipodi:type="inkscape:persp3d"
       inkscape:vp_x="0 : 526.18109 : 1"
       inkscape:vp_y="0 : 1000 : 0"
       inkscape:vp_z="744.09448 : 526.18109 : 1"
       inkscape:persp3d-origin="372.04724 : 350.78739 : 1"
       id="perspective4107" />
  </defs>
  <sodipodi:namedview
     id="base"
     pagecolor="#ffffff"
     bordercolor="#666666"
     borderopacity="1.0"
     gridtolerance="10000"
     guidetolerance="10"
     objecttolerance="10"
     inkscape:pageopacity="0.0"
     inkscape:pageshadow="2"
     inkscape:zoom="40.216698"
     inkscape:cx="3.7480348"
     inkscape:cy="8"
     inkscape:document-units="px"
     inkscape:current-layer="layer6"
     showgrid="true"
     inkscape:window-width="1918"
     inkscape:window-height="1114"
     inkscape:window-x="1"
     inkscape:window-y="27"
     showguides="true"
     inkscape:guide-bbox="true">
    <inkscape:grid
       type="xygrid"
       id="grid4109"
       units="px"
       visible="true"
       enabled="true"
       spacingx="0.5px"
       spacingy="0.5px" />
    <sodipodi:guide
       orientation="1,0"
       position="8,10.074725"
       id="guide5376" />
    <sodipodi:guide
       orientation="0,1"
       position="6.0659341,8"
       id="guide5378" />
  </sodipodi:namedview>
  <metadata
     id="metadata4104">
    <rdf:RDF>
      <cc:Work
         rdf:about="">
        <dc:format>image/svg+xml</dc:format>
        <dc:type
           rdf:resource="http://purl.org/dc/dcmitype/StillImage" />
        <cc:license
           rdf:resource="http://creativecommons.org/licenses/by-sa/3.0/" />
        <dc:creator>
          <cc:Agent>
            <dc:title>Heiko Reese &lt;mail@heiko-reese.de&gt;</dc:title>
          </cc:Agent>
        </dc:creator>
        <dc:subject>
          <rdf:Bag>
            <rdf:li>geocaching icon corrected</rdf:li>
          </rdf:Bag>
        </dc:subject>
        <dc:title>Unknown Cache</dc:title>
        <dc:description>Note to self: Font is Century Schoolbook</dc:description>
      </cc:Work>
      <cc:License
         rdf:about="http://creativecommons.org/licenses/by-sa/3.0/">
        <cc:permits
           rdf:resource="http://creativecommons.org/ns#Reproduction" />
        <cc:permits
           rdf:resource="http://creativecommons.org/ns#Distribution" />
        <cc:requires
           rdf:resource="http://creativecommons.org/ns#Notice" />
        <cc:requires
           rdf:resource="http://creativecommons.org/ns#Attribution" />
        <cc:permits
           rdf:resource="http://creativecommons.org/ns#DerivativeWorks" />
        <cc:requires
           rdf:resource="http://creativecommons.org/ns#ShareAlike" />
      </cc:License>
    </rdf:RDF>
  </metadata>
  <g
     inkscape:groupmode="layer"
     id="layer6"
     inkscape:label="Unknown Cache"
     style="display:inline">
    <path
       style="font-size:144px;font-style:normal;font-variant:normal;font-weight:bold;font-stretch:normal;text-align:center;line-height:125%;writing-mode:lr-tb;text-anchor:middle;fill:#0025c1;fill-opacity:1;stroke:#000000;stroke-width:0.5;stroke-linecap:butt;stroke-linejoin:miter;stroke-miterlimit:4;stroke-dasharray:none;stroke-opacity:1;font-family:Century Schoolbook L;-inkscape-font-specification:Century Schoolbook L Bold"
       d="M 5.5991768,10.551584 C 5.6570263,9.2018512 5.8305785,8.8740561 7.0261511,7.9485255 C 8.5109727,6.8108933 8.6845255,6.675919 8.8195098,6.5602276 C 9.4944285,5.9817712 9.8800993,5.0948003 9.8800993,4.1692697 C 9.8800993,2.0675441 8.1831525,0.73708901 5.4834762,0.73708901 C 2.9380647,0.73708901 1.1447045,1.9711327 1.1447045,3.7450675 C 1.1447045,4.7862896 1.9160415,5.5382862 2.9766306,5.5382862 C 3.9600843,5.5382862 4.6350052,4.9019811 4.6350052,3.9957326 C 4.6350052,3.4751227 4.4228864,3.050919 4.0179361,2.7424083 C 3.6708337,2.4724611 3.6515508,2.4531798 3.6515508,2.3182061 C 3.6515508,2.0482591 4.0757863,1.8361583 4.6735726,1.8361583 C 5.8305771,1.8361583 6.4862151,2.6074363 6.4862151,3.9571691 C 6.4862151,4.7477276 6.1969622,5.7311061 5.7148772,6.5987911 C 4.6542889,8.4884175 4.5000218,8.8740583 4.5000218,9.7417433 C 4.5000218,9.9345626 4.5193047,10.243073 4.557872,10.551584 L 5.5991768,10.551584 M 5.117091,11.612089 C 4.1143529,11.612089 3.3044485,12.421931 3.3044485,13.424589 C 3.3044485,14.407965 4.1143529,15.237089 5.0978081,15.237089 C 6.1198284,15.237089 6.9297335,14.427248 6.9297335,13.424589 C 6.9297335,12.421931 6.1198284,11.612089 5.117091,11.612089"
       id="text4865" />
    <path
       style="font-size:20px;font-style:normal;font-variant:normal;font-weight:bold;font-stretch:normal;text-align:start;line-height:125%;writing-mode:lr-tb;text-anchor:start;fill:#0025c1;fill-opacity:1;fill-rule:nonzero;stroke:#000000;stroke-width:0.5;stroke-linecap:butt;stroke-linejoin:miter;marker:none;marker-start:none;marker-mid:none;marker-end:none;stroke-miterlimit:4;stroke-dashoffset:0;stroke-opacity:1;visibility:visible;display:inline;overflow:visible;enable-background:accumulate;font-family:Century Schoolbook L;-inkscape-font-specification:Century Schoolbook L Medium"
       d="M 13.568085,10.577406 C 13.644933,8.4756792 13.837054,6.9909684 14.202084,5.7376453 C 14.81687,3.6166369 14.855296,3.4430967 14.855296,2.6911029 C 14.855296,1.4763435 14.182871,0.7629115 13.06857,0.7629115 C 11.935056,0.7629115 11.262631,1.4763435 11.262631,2.6911029 C 11.262631,3.1924322 11.358692,3.8287364 11.531601,4.4071932 C 12.300084,6.9524034 12.43457,7.781531 12.549842,10.577406 L 13.568085,10.577406 M 13.049357,11.657192 C 12.069541,11.657192 11.262631,12.467034 11.262631,13.45041 C 11.262631,14.433787 12.069541,15.262911 13.030145,15.262911 C 14.048386,15.262911 14.855296,14.453069 14.855296,13.45041 C 14.855296,12.467034 14.048386,11.657192 13.049357,11.657192"
       id="text2483" />
  </g>
</svg>
